<svg width="352" height="101" viewBox="0 0 352 101" fill="none" xmlns="http://www.w3.org/2000/svg">
<path d="M90.826 31.0066C120.128 31.0066 149.408 26.4478 179.073 17.3351C228.989 1.99584 291.995 2.00081 343.487 17.3547C346.03 18.108 349.439 17.7878 351.101 16.6308C352.766 15.4741 352.055 13.9211 349.514 13.1629C294.245 -3.31128 226.58 -3.30383 172.917 13.1825C117.724 30.1408 63.9624 30.1433 8.57021 13.18C6.04846 12.4071 2.63241 12.7154 0.935111 13.8625C-0.759439 15.0092 -0.0878886 16.5647 2.43111 17.3376C32.1977 26.4503 61.5209 31.0066 90.826 31.0066Z" fill="#613D2B"/>
<path d="M349.513 47.7521C294.239 31.2779 226.574 31.2854 172.917 47.7717C117.718 64.735 63.9565 64.7325 8.56983 47.7692C6.04808 46.9963 2.63203 47.3021 0.937483 48.4517C-0.759817 49.5987 -0.0882669 51.1542 2.43073 51.9268C32.1945 61.0395 61.5156 65.5983 90.8201 65.5983C120.122 65.5958 149.403 61.0395 179.073 51.9246C228.983 36.5828 291.989 36.5925 343.487 51.944C346.03 52.6972 349.441 52.377 351.103 51.22C352.765 50.0633 352.054 48.5103 349.513 47.7521Z" fill="#613D2B"/>
<path d="M349.513 82.3412C294.239 65.8721 226.577 65.8795 172.917 82.3609C117.729 99.3242 63.9724 99.3292 8.56983 82.3584C6.04808 81.5857 2.63203 81.8938 0.937483 83.0408C-0.759817 84.1879 -0.0882669 85.7433 2.43073 86.5162C32.1973 95.6312 61.5233 100.19 90.8256 100.188C120.127 100.188 149.408 95.6287 179.07 86.5138C228.989 71.1767 291.989 71.1817 343.487 86.5331C346.03 87.2864 349.441 86.9662 351.103 85.8094C352.765 84.6525 352.054 83.0995 349.513 82.3412Z" fill="#613D2B"/>
</svg>
