<svg width="28" height="26" viewBox="0 0 28 26" fill="none" xmlns="http://www.w3.org/2000/svg">
<path d="M24.1818 0H11.4545C10.4419 0 9.47073 0.410892 8.75468 1.14228C8.03864 1.87368 7.63636 2.86566 7.63636 3.9V13C7.63636 14.0343 8.03864 15.0263 8.75468 15.7577C9.47073 16.4891 10.4419 16.9 11.4545 16.9H24.1818C25.1945 16.9 26.1656 16.4891 26.8817 15.7577C27.5977 15.0263 28 14.0343 28 13V3.9C28 2.86566 27.5977 1.87368 26.8817 1.14228C26.1656 0.410892 25.1945 0 24.1818 0ZM25.4545 13C25.4545 13.3448 25.3205 13.6754 25.0818 13.9192C24.8431 14.163 24.5194 14.3 24.1818 14.3H11.4545C11.117 14.3 10.7933 14.163 10.5546 13.9192C10.3159 13.6754 10.1818 13.3448 10.1818 13V3.9C10.1818 3.55522 10.3159 3.22456 10.5546 2.98076C10.7933 2.73696 11.117 2.6 11.4545 2.6H24.1818C24.5194 2.6 24.8431 2.73696 25.0818 2.98076C25.3205 3.22456 25.4545 3.55522 25.4545 3.9V13ZM21 7.8C20.5288 7.80163 20.0751 7.98237 19.7273 8.307C19.4536 8.05292 19.1136 7.8855 18.7485 7.82509C18.3834 7.76469 18.009 7.81389 17.6708 7.96673C17.3326 8.11957 17.0451 8.36946 16.8433 8.68604C16.6415 9.00261 16.5341 9.37224 16.5341 9.75C16.5341 10.1278 16.6415 10.4974 16.8433 10.814C17.0451 11.1305 17.3326 11.3804 17.6708 11.5333C18.009 11.6861 18.3834 11.7353 18.7485 11.6749C19.1136 11.6145 19.4536 11.4471 19.7273 11.193C19.9571 11.4064 20.2344 11.5592 20.5352 11.6384C20.836 11.7175 21.1511 11.7204 21.4532 11.647C21.7554 11.5736 22.0354 11.4259 22.2691 11.2169C22.5027 11.0079 22.6829 10.7439 22.794 10.4476C22.9051 10.1514 22.9438 9.83195 22.9067 9.51699C22.8696 9.20203 22.7578 8.90107 22.5811 8.64022C22.4043 8.37937 22.1679 8.1665 21.8924 8.02008C21.6169 7.87367 21.3106 7.79812 21 7.8V7.8ZM19.0909 19.5C18.7534 19.5 18.4296 19.637 18.191 19.8808C17.9523 20.1246 17.8182 20.4552 17.8182 20.8V22.1C17.8182 22.4448 17.6841 22.7754 17.4454 23.0192C17.2067 23.263 16.883 23.4 16.5455 23.4H3.81818C3.48063 23.4 3.15691 23.263 2.91823 23.0192C2.67954 22.7754 2.54545 22.4448 2.54545 22.1V16.9H3.81818C4.15573 16.9 4.47945 16.763 4.71814 16.5192C4.95682 16.2754 5.09091 15.9448 5.09091 15.6C5.09091 15.2552 4.95682 14.9246 4.71814 14.6808C4.47945 14.437 4.15573 14.3 3.81818 14.3H2.54545V13C2.54545 12.6552 2.67954 12.3246 2.91823 12.0808C3.15691 11.837 3.48063 11.7 3.81818 11.7C4.15573 11.7 4.47945 11.563 4.71814 11.3192C4.95682 11.0754 5.09091 10.7448 5.09091 10.4C5.09091 10.0552 4.95682 9.72456 4.71814 9.48076C4.47945 9.23696 4.15573 9.1 3.81818 9.1C2.80554 9.1 1.83437 9.51089 1.11832 10.2423C0.402272 10.9737 0 11.9657 0 13V22.1C0 23.1343 0.402272 24.1263 1.11832 24.8577C1.83437 25.5891 2.80554 26 3.81818 26H16.5455C17.5581 26 18.5293 25.5891 19.2453 24.8577C19.9614 24.1263 20.3636 23.1343 20.3636 22.1V20.8C20.3636 20.4552 20.2295 20.1246 19.9909 19.8808C19.7522 19.637 19.4285 19.5 19.0909 19.5ZM6.36364 20.8H7.63636C7.97391 20.8 8.29763 20.663 8.53632 20.4192C8.775 20.1754 8.90909 19.8448 8.90909 19.5C8.90909 19.1552 8.775 18.8246 8.53632 18.5808C8.29763 18.337 7.97391 18.2 7.63636 18.2H6.36364C6.02609 18.2 5.70237 18.337 5.46368 18.5808C5.225 18.8246 5.09091 19.1552 5.09091 19.5C5.09091 19.8448 5.225 20.1754 5.46368 20.4192C5.70237 20.663 6.02609 20.8 6.36364 20.8Z" fill="#613D2B"/>
</svg>
