<svg width="40" height="40" viewBox="0 0 40 40" fill="none" xmlns="http://www.w3.org/2000/svg">
<path d="M38 18.6667H32V3.33333C31.9977 1.49316 30.5068 0.00227865 28.6667 0H6.66666C5.19401 0 3.99999 1.19401 3.99999 2.66667V10.6667H1.99999C1.63183 10.6667 1.33333 10.9652 1.33333 11.3333V15.3333C1.33333 15.7015 1.63183 16 1.99999 16H3.99999V23.3333C3.99999 23.7015 4.2985 24 4.66666 24H7.99999V37.3333C7.99999 38.806 9.19401 40 10.6667 40H32.6667C34.1393 40 35.3333 38.806 35.3333 37.3333C35.3333 35.8607 34.1393 34.6667 32.6667 34.6667H32V24H38C38.3682 24 38.6667 23.7015 38.6667 23.3333V19.3333C38.6667 18.9652 38.3682 18.6667 38 18.6667ZM5.33333 2.66667C5.33333 1.93034 5.93033 1.33333 6.66666 1.33333C7.40299 1.33333 7.99999 1.93034 7.99999 2.66667V10.6667H5.33333V2.66667ZM2.66666 12H21.3333C21.6686 12 21.9518 11.7513 21.9948 11.4186L24.292 13.3333L21.9948 15.248C21.9518 14.9154 21.6686 14.6667 21.3333 14.6667H2.66666V12ZM5.33333 22.6667V16H7.99999V22.6667H5.33333ZM34 37.3333C34 38.0697 33.403 38.6667 32.6667 38.6667H12.9753C13.2106 38.2617 13.334 37.8018 13.3333 37.3333V36H32.6667C33.403 36 34 36.597 34 37.3333ZM30.6667 34.6667H12.6667C12.2985 34.6667 12 34.9652 12 35.3333V37.3333C12 38.0697 11.403 38.6667 10.6667 38.6667C9.93033 38.6667 9.33333 38.0697 9.33333 37.3333V16H20.6667V16.6667C20.6667 16.9255 20.8164 17.1611 21.0508 17.2708C21.2852 17.3805 21.5618 17.3447 21.7607 17.1787L25.7607 13.8454C25.9124 13.7188 26.0003 13.5312 26.0003 13.3333C26.0003 13.1354 25.9124 12.9479 25.7607 12.8213L21.7607 9.48796C21.5618 9.32194 21.2852 9.28613 21.0508 9.39583C20.8164 9.50553 20.6667 9.74121 20.6667 10V10.6667H9.33333V2.66667C9.33105 2.19727 9.20344 1.73698 8.96386 1.33333H28.6667C29.7712 1.33333 30.6667 2.22884 30.6667 3.33333V18.6667H19.3333V18C19.3333 17.7412 19.1836 17.5055 18.9492 17.3958C18.7148 17.2861 18.4381 17.3219 18.2393 17.488L14.2393 20.8213C14.0876 20.9479 13.9997 21.1354 13.9997 21.3333C13.9997 21.5312 14.0876 21.7188 14.2393 21.8454L18.2393 25.1787C18.4381 25.3447 18.7148 25.3805 18.9492 25.2708C19.1836 25.1611 19.3333 24.9255 19.3333 24.6667V24H30.6667V34.6667ZM37.3333 22.6667H18.6667C18.5807 22.667 18.4958 22.6842 18.4167 22.7174C18.3922 22.7301 18.3688 22.7445 18.346 22.7601C18.2982 22.7848 18.2532 22.8151 18.2126 22.8506C18.1911 22.8747 18.1712 22.9001 18.1533 22.9268C18.1208 22.9642 18.0931 23.0052 18.07 23.0495C18.057 23.0807 18.0469 23.1133 18.0394 23.1468C18.0254 23.1794 18.0143 23.2132 18.0065 23.248L15.708 21.3333L18.0052 19.4186C18.013 19.4535 18.0241 19.4873 18.0381 19.5199C18.0452 19.5534 18.0557 19.5859 18.0687 19.6172C18.0915 19.6615 18.1195 19.7025 18.152 19.7399C18.1699 19.7666 18.1898 19.792 18.2113 19.8161C18.2519 19.8516 18.2969 19.8818 18.3447 19.9066C18.3675 19.9222 18.3909 19.9365 18.4154 19.9492C18.4948 19.9827 18.5804 20 18.6667 20H37.3333V22.6667Z" fill="#00E016"/>
<path d="M12 4H18.6667V5.33333H12V4Z" fill="#00E016"/>
<path d="M12 6.66669H18.6667V8.00002H12V6.66669Z" fill="#00E016"/>
<path d="M14.6667 29.3333H28V30.6666H14.6667V29.3333Z" fill="#00E016"/>
<path d="M14.6667 32H28V33.3333H14.6667V32Z" fill="#00E016"/>
<path d="M24 26.6667H28V28H24V26.6667Z" fill="#00E016"/>
</svg>
